<svg width="32" height="32" viewBox="0 0 32 32" fill="none" xmlns="http://www.w3.org/2000/svg">
<path d="M5.33268 28C4.59935 28 3.97157 27.7389 3.44935 27.2167C2.92713 26.6945 2.66602 26.0667 2.66602 25.3334V10.6667C2.66602 9.93335 2.92713 9.30558 3.44935 8.78335C3.97157 8.26113 4.59935 8.00002 5.33268 8.00002H10.666V5.33335C10.666 4.60002 10.9271 3.97224 11.4493 3.45002C11.9716 2.9278 12.5993 2.66669 13.3327 2.66669H18.666C19.3993 2.66669 20.0271 2.9278 20.5493 3.45002C21.0716 3.97224 21.3327 4.60002 21.3327 5.33335V8.00002H26.666C27.3993 8.00002 28.0271 8.26113 28.5493 8.78335C29.0716 9.30558 29.3327 9.93335 29.3327 10.6667V25.3334C29.3327 26.0667 29.0716 26.6945 28.5493 27.2167C28.0271 27.7389 27.3993 28 26.666 28H5.33268ZM13.3327 8.00002H18.666V5.33335H13.3327V8.00002ZM7.99935 10.6667H5.33268V25.3334H7.99935V10.6667ZM21.3327 25.3334V10.6667H10.666V25.3334H21.3327ZM23.9993 10.6667V25.3334H26.666V10.6667H23.9993Z" fill="#3E5E4D"/>
</svg>
