<svg width="32" height="32" viewBox="0 0 32 32" fill="none" xmlns="http://www.w3.org/2000/svg">
<path d="M5.3319 26.6667V14.1667L2.9319 16L1.36523 13.9L15.9986 2.66669L30.6652 13.8667L29.0652 16L15.9986 6.00002L7.99857 12.1334V24H13.3319V26.6667H5.3319ZM23.3319 29.8334C22.3986 30.4778 21.3708 30.75 20.2486 30.65C19.1263 30.55 18.1652 30.1 17.3652 29.3C16.5652 28.5 16.1152 27.5389 16.0152 26.4167C15.9152 25.2945 16.1875 24.2667 16.8319 23.3334C16.1875 22.4 15.9152 21.3722 16.0152 20.25C16.1152 19.1278 16.5652 18.1667 17.3652 17.3667C18.1652 16.5667 19.1263 16.1167 20.2486 16.0167C21.3708 15.9167 22.3986 16.1889 23.3319 16.8334C24.2652 16.1889 25.293 15.9167 26.4152 16.0167C27.5375 16.1167 28.4986 16.5667 29.2986 17.3667C30.0986 18.1667 30.5486 19.1278 30.6486 20.25C30.7486 21.3722 30.4763 22.4 29.8319 23.3334C30.4763 24.2667 30.7486 25.2945 30.6486 26.4167C30.5486 27.5389 30.0986 28.5 29.2986 29.3C28.4986 30.1 27.5375 30.55 26.4152 30.65C25.293 30.75 24.2652 30.4778 23.3319 29.8334ZM23.3319 26.5667L24.8652 27.6334C25.2652 27.9222 25.6986 28.0445 26.1652 28C26.6319 27.9556 27.043 27.7556 27.3986 27.4C27.7541 27.0445 27.9541 26.6334 27.9986 26.1667C28.043 25.7 27.9208 25.2667 27.6319 24.8667L26.5652 23.3334L27.6319 21.8C27.9208 21.4 28.043 20.9667 27.9986 20.5C27.9541 20.0334 27.7541 19.6222 27.3986 19.2667C27.043 18.9111 26.6319 18.7111 26.1652 18.6667C25.6986 18.6222 25.2652 18.7445 24.8652 19.0334L23.3319 20.1L21.7986 19.0334C21.3986 18.7445 20.9652 18.6222 20.4986 18.6667C20.0319 18.7111 19.6208 18.9111 19.2652 19.2667C18.9097 19.6222 18.7097 20.0334 18.6652 20.5C18.6208 20.9667 18.743 21.4 19.0319 21.8L20.0986 23.3334L19.0319 24.8667C18.743 25.2667 18.6208 25.7 18.6652 26.1667C18.7097 26.6334 18.9097 27.0445 19.2652 27.4C19.6208 27.7556 20.0319 27.9556 20.4986 28C20.9652 28.0445 21.3986 27.9222 21.7986 27.6334L23.3319 26.5667ZM23.3319 25C23.7986 25 24.193 24.8389 24.5152 24.5167C24.8375 24.1945 24.9986 23.8 24.9986 23.3334C24.9986 22.8667 24.8375 22.4722 24.5152 22.15C24.193 21.8278 23.7986 21.6667 23.3319 21.6667C22.8652 21.6667 22.4708 21.8278 22.1486 22.15C21.8263 22.4722 21.6652 22.8667 21.6652 23.3334C21.6652 23.8 21.8263 24.1945 22.1486 24.5167C22.4708 24.8389 22.8652 25 23.3319 25Z" fill="#3E5E4D"/>
</svg>
