<svg width="32" height="32" viewBox="0 0 32 32" fill="none" xmlns="http://www.w3.org/2000/svg">
<path d="M2.66602 25.3334V17.3334C2.66602 16.7334 2.78824 16.1889 3.03268 15.7C3.27713 15.2111 3.59935 14.7778 3.99935 14.4V10.6667C3.99935 9.55558 4.38824 8.61113 5.16602 7.83335C5.94379 7.05558 6.88824 6.66669 7.99935 6.66669H13.3327C13.8438 6.66669 14.3216 6.76113 14.766 6.95002C15.2105 7.13891 15.6216 7.40002 15.9993 7.73335C16.3771 7.40002 16.7882 7.13891 17.2327 6.95002C17.6771 6.76113 18.1549 6.66669 18.666 6.66669H23.9993C25.1105 6.66669 26.0549 7.05558 26.8327 7.83335C27.6105 8.61113 27.9993 9.55558 27.9993 10.6667V14.4C28.3993 14.7778 28.7216 15.2111 28.966 15.7C29.2105 16.1889 29.3327 16.7334 29.3327 17.3334V25.3334H26.666V22.6667H5.33268V25.3334H2.66602ZM17.3327 13.3334H25.3327V10.6667C25.3327 10.2889 25.2049 9.97224 24.9493 9.71669C24.6938 9.46113 24.3771 9.33335 23.9993 9.33335H18.666C18.2882 9.33335 17.9716 9.46113 17.716 9.71669C17.4605 9.97224 17.3327 10.2889 17.3327 10.6667V13.3334ZM6.66602 13.3334H14.666V10.6667C14.666 10.2889 14.5382 9.97224 14.2827 9.71669C14.0271 9.46113 13.7105 9.33335 13.3327 9.33335H7.99935C7.62157 9.33335 7.3049 9.46113 7.04935 9.71669C6.79379 9.97224 6.66602 10.2889 6.66602 10.6667V13.3334ZM5.33268 20H26.666V17.3334C26.666 16.9556 26.5382 16.6389 26.2827 16.3834C26.0271 16.1278 25.7105 16 25.3327 16H6.66602C6.28824 16 5.97157 16.1278 5.71602 16.3834C5.46046 16.6389 5.33268 16.9556 5.33268 17.3334V20Z" fill="#3E5E4D"/>
</svg>
