<svg width="25" height="21" viewBox="0 0 25 21" fill="none" xmlns="http://www.w3.org/2000/svg">
<path d="M11.3398 0C18.4974 0 24.2998 6.21694 24.2998 13.8857V20.8281H12.96C5.80241 20.8281 0 14.6112 0 6.94238V0H11.3398ZM6.0752 5.20703C6.19297 5.47943 6.31516 5.74725 6.44141 6.00977C7.57757 8.37216 9.05669 10.3345 10.8789 11.8965C12.7013 13.4585 14.8674 14.6203 17.376 15.3818C17.6547 15.4664 17.9384 15.5464 18.2256 15.6211C18.1078 15.3487 17.9856 15.0809 17.8594 14.8184C16.7232 12.4558 15.2433 10.4937 13.4209 8.93164C11.5985 7.36955 9.43245 6.20783 6.92383 5.44629C6.64522 5.36172 6.36226 5.28173 6.0752 5.20703Z" fill="#3E5E4D"/>
</svg>
