<svg width="24" height="24" viewBox="0 0 24 24" fill="none" xmlns="http://www.w3.org/2000/svg">
<g clip-path="url(#clip0_2009_1159)">
<path d="M12 0C18.6274 0 24 5.37258 24 12C24 18.6274 18.6274 24 12 24C5.37258 24 0 18.6274 0 12C0 5.37258 5.37258 0 12 0ZM12 11.75C11.175 11.75 10.3625 11.8473 9.5625 12.041C8.76264 12.2347 7.97507 12.5247 7.2002 12.9121C6.8377 13.0996 6.54688 13.3723 6.32812 13.7285C6.10949 14.0847 6 14.4755 6 14.9004V17H18V14.9004C18 14.4755 17.8905 14.0847 17.6719 13.7285C17.4531 13.3723 17.1623 13.0996 16.7998 12.9121C16.0249 12.5247 15.2374 12.2347 14.4375 12.041C13.6375 11.8473 12.825 11.75 12 11.75ZM12 5C11.175 5 10.4684 5.29336 9.88086 5.88086C9.29336 6.46836 9 7.175 9 8C9 8.825 9.29336 9.53164 9.88086 10.1191C10.4684 10.7066 11.175 11 12 11C12.825 11 13.5316 10.7066 14.1191 10.1191C14.7066 9.53164 15 8.825 15 8C15 7.175 14.7066 6.46836 14.1191 5.88086C13.5316 5.29336 12.825 5 12 5Z" fill="#3E5E4D"/>
</g>
<defs>
<clipPath id="clip0_2009_1159">
<rect width="24" height="24" fill="white"/>
</clipPath>
</defs>
</svg>
